<?xml version="1.0" encoding="iso-8859-1"?>
<!-- Generator: Adobe Illustrator 19.0.0, SVG Export Plug-In . SVG Version: 6.00 Build 0)  -->
<svg version="1.1" id="Layer_1" xmlns="http://www.w3.org/2000/svg" xmlns:xlink="http://www.w3.org/1999/xlink" x="0px" y="0px"
	 viewBox="0 0 512 512" style="enable-background:new 0 0 512 512;" xml:space="preserve">
<g transform="translate(1 1)">
	<g>
		<path style="fill:#FFE100;" d="M337.733,452.973c-2.56,0-4.267-0.853-5.973-2.56l-78.507-78.507
			c-3.413-3.413-3.413-8.533,0-11.947c3.413-3.413,8.533-3.413,11.947,0l78.507,78.507c3.413,3.413,3.413,8.533,0,11.947
			C342,452.12,339.44,452.973,337.733,452.973z"/>
		<path style="fill:#FFE100;" d="M138.053,461.507c-2.56,0-4.267-0.853-5.973-2.56c-3.413-3.413-3.413-8.533,0-11.947l317.44-317.44
			c3.413-3.413,8.533-3.413,11.947,0c3.413,3.413,3.413,8.533,0,11.947l-317.44,317.44
			C142.32,460.653,140.613,461.507,138.053,461.507z"/>
		<path style="fill:#FFE100;" d="M498.16,152.6L498.16,152.6c-5.12,0-8.533-4.267-8.533-8.533c0-2.56,0-5.12-4.267-6.827
			c-5.973-2.56-17.067-1.707-23.893,4.267c-3.413,3.413-8.533,3.413-11.947,0c-3.413-3.413-3.413-8.533,0-11.947
			c10.24-10.24,29.013-13.653,42.667-8.533c9.387,4.267,15.36,12.8,14.507,23.04C506.693,149.187,502.426,152.6,498.16,152.6z"/>
	</g>
	<path style="fill:#63D3FD;" d="M259.226,144.067c-30.72,0-58.88,4.267-81.92,11.093l-11.947,31.573h230.4
		C376.133,161.987,322.373,144.067,259.226,144.067"/>
	<path style="fill:#FDCC00;" d="M165.36,186.733l68.267-179.2H114.16c-34.987,0-65.707,17.067-83.627,44.373L165.36,186.733z"/>
	<path style="fill:#FFFFFF;" d="M45.893,60.44c18.773-27.307,49.493-44.373,83.627-44.373h100.693l3.413-8.533H114.16
		c-34.987,0-65.707,17.067-83.627,44.373L165.36,186.733l1.707-5.12L45.893,60.44z"/>
	<path style="fill:#FFE100;" d="M30.533,51.907c-12.8,16.213-18.773,35.84-18.773,58.027v153.6c0,56.32,46.08,102.4,102.4,102.4
		h238.933c56.32,0,102.4-46.08,102.4-102.4v-76.8H165.36L30.533,51.907z"/>
	<path style="fill:#FFFFFF;" d="M37.36,263.533v-153.6c0-15.36,3.413-29.013,9.387-41.813L30.533,51.907
		c-12.8,16.213-18.773,35.84-18.773,58.027v153.6c0,56.32,46.08,102.4,102.4,102.4h25.6C83.44,365.933,37.36,319.853,37.36,263.533"
		/>
	<path style="fill:#FFA800;" d="M429.893,186.733v76.8c0,56.32-46.08,102.4-102.4,102.4h25.6c56.32,0,102.4-46.08,102.4-102.4v-76.8
		H429.893z"/>
	<g>
		<path style="fill:#00DA6C;" d="M318.96,468.333c0,18.773,15.36,34.133,34.133,34.133s34.133-15.36,34.133-34.133
			c0-18.773-15.36-34.133-34.133-34.133S318.96,449.56,318.96,468.333"/>
		<path style="fill:#00DA6C;" d="M80.026,468.333c0,18.773,15.36,34.133,34.133,34.133s34.133-15.36,34.133-34.133
			c0-18.773-15.36-34.133-34.133-34.133S80.026,449.56,80.026,468.333"/>
	</g>
	<path d="M122.693,468.333c0,5.12-3.413,8.533-8.533,8.533c-5.12,0-8.533-3.413-8.533-8.533c0-5.12,3.413-8.533,8.533-8.533
		C119.28,459.8,122.693,463.213,122.693,468.333"/>
	<path d="M361.626,468.333c0,5.12-3.413,8.533-8.533,8.533s-8.533-3.413-8.533-8.533c0-5.12,3.413-8.533,8.533-8.533
		S361.626,463.213,361.626,468.333"/>
	<path d="M353.093,511c-23.893,0-42.667-18.773-42.667-42.667c0-23.893,18.773-42.667,42.667-42.667s42.667,18.773,42.667,42.667
		C395.76,492.227,376.986,511,353.093,511z M353.093,442.733c-14.507,0-25.6,11.093-25.6,25.6c0,14.507,11.093,25.6,25.6,25.6
		s25.6-11.093,25.6-25.6C378.693,453.827,367.6,442.733,353.093,442.733z"/>
	<path d="M114.16,511c-23.893,0-42.667-18.773-42.667-42.667c0-23.893,18.773-42.667,42.667-42.667s42.667,18.773,42.667,42.667
		C156.826,492.227,138.053,511,114.16,511z M114.16,442.733c-14.507,0-25.6,11.093-25.6,25.6c0,14.507,11.093,25.6,25.6,25.6
		s25.6-11.093,25.6-25.6C139.76,453.827,128.666,442.733,114.16,442.733z"/>
	<path d="M165.36,195.267h-51.2c-5.12,0-8.533-3.413-8.533-8.533c0-5.12,3.413-8.533,8.533-8.533h51.2
		c5.12,0,8.533,3.413,8.533,8.533C173.893,191.853,170.48,195.267,165.36,195.267z"/>
	<path d="M329.2,452.973c-2.56,0-4.267-0.853-5.973-2.56l-78.507-78.507c-3.413-3.413-3.413-8.533,0-11.947
		c3.413-3.413,8.533-3.413,11.947,0l78.507,78.507c3.413,3.413,3.413,8.533,0,11.947C333.466,452.12,330.906,452.973,329.2,452.973z
		"/>
	<path d="M138.053,452.973c-2.56,0-4.267-0.853-5.973-2.56c-3.413-3.413-3.413-8.533,0-11.947l317.44-317.44
		c3.413-3.413,8.533-3.413,11.947,0c3.413,3.413,3.413,8.533,0,11.947l-317.44,317.44
		C142.32,452.12,140.613,452.973,138.053,452.973z"/>
	<path d="M498.16,144.067L498.16,144.067c-5.12,0-8.533-4.267-8.533-8.533c0-2.56,0-5.12-4.267-6.827
		c-5.973-2.56-17.067-1.707-23.893,4.267c-3.413,3.413-8.533,3.413-11.947,0s-3.413-8.533,0-11.947
		c10.24-10.24,29.013-13.653,42.667-8.533c9.387,4.267,15.36,12.8,14.507,23.04C506.693,140.653,502.426,144.067,498.16,144.067z"/>
	<path d="M165.36,195.267c-2.56,0-4.267-0.853-5.973-2.56L24.56,57.88c-3.413-3.413-3.413-7.68-1.707-11.093
		C44.186,16.92,78.32-1,114.16-1h119.467c2.56,0,5.12,1.707,6.827,3.413c1.707,2.56,2.56,5.12,0.853,8.533l-68.267,179.2
		c-0.853,2.56-3.413,5.12-5.973,5.12C166.213,195.267,166.213,195.267,165.36,195.267z M41.626,51.053l120.32,120.32l58.88-155.307
		H114.16C86,16.067,59.546,28.867,41.626,51.053z"/>
	<path d="M353.093,374.467H114.16c-61.44,0-110.933-49.493-110.933-110.933v-153.6c0-23.893,6.827-45.227,20.48-63.147
		c1.707-1.707,3.413-3.413,5.973-3.413s5.12,0.853,6.827,2.56L168.773,178.2h286.72c5.12,0,8.533,3.413,8.533,8.533v76.8
		C464.026,324.973,414.533,374.467,353.093,374.467z M31.386,64.707c-7.68,13.653-11.093,28.16-11.093,45.227v153.6
		c0,52.053,41.813,93.867,93.867,93.867h238.933c52.053,0,93.867-41.813,93.867-93.867v-68.267h-281.6
		c-2.56,0-4.267-0.853-5.973-2.56L31.386,64.707z"/>
	<path d="M395.76,195.267h-230.4c-2.56,0-5.12-1.707-6.827-3.413c-1.707-2.56-1.707-5.12-0.853-7.68l11.947-31.573
		c0.853-2.56,2.56-4.267,5.12-5.12c25.6-7.68,54.613-11.947,84.48-11.947c64.853,0,121.173,17.92,143.36,46.08
		c1.707,2.56,2.56,5.973,0.853,9.387C401.733,193.56,399.173,195.267,395.76,195.267z M178.16,178.2h194.56
		c-25.6-15.36-68.267-25.6-113.493-25.6c-26.453,0-52.907,3.413-75.093,10.24L178.16,178.2z"/>
	<path d="M45.893,263.533H11.76c-5.12,0-8.533-3.413-8.533-8.533s3.413-8.533,8.533-8.533h34.133c5.12,0,8.533,3.413,8.533,8.533
		S51.013,263.533,45.893,263.533z"/>
	<path d="M62.96,229.4h-51.2c-5.12,0-8.533-3.413-8.533-8.533c0-5.12,3.413-8.533,8.533-8.533h51.2c5.12,0,8.533,3.413,8.533,8.533
		C71.493,225.987,68.08,229.4,62.96,229.4z"/>
</g>
<g>
</g>
<g>
</g>
<g>
</g>
<g>
</g>
<g>
</g>
<g>
</g>
<g>
</g>
<g>
</g>
<g>
</g>
<g>
</g>
<g>
</g>
<g>
</g>
<g>
</g>
<g>
</g>
<g>
</g>
</svg>
