<?xml version="1.0" encoding="utf-8"?>
<!-- Generator: Adobe Illustrator 27.0.1, SVG Export Plug-In . SVG Version: 6.00 Build 0)  -->
<svg version="1.1" id="Uploaded_to_svgrepo.com" xmlns="http://www.w3.org/2000/svg" xmlns:xlink="http://www.w3.org/1999/xlink"
	 x="0px" y="0px" viewBox="0 0 32 32" style="enable-background:new 0 0 32 32;" xml:space="preserve">
<style type="text/css">
	.st0{fill:#E6CB01;}
</style>
<path class="st0" d="M26,10h-2V8.3c0-4.3-3.2-8-7.5-8.3C11.9-0.3,8,3.4,8,8v2H6c-1.1,0-2,0.9-2,2v1c0,1.1,0.9,2,2,2v1
	c0,5.2,3.9,9.4,9,10v4h-5c-0.6,0-1,0.4-1,1l0,0c0,0.6,0.4,1,1,1h12c0.6,0,1-0.4,1-1l0,0c0-0.6-0.4-1-1-1h-5v-4c5.1-0.5,9-4.8,9-10
	v-1c1.1,0,2-0.9,2-2v-1C28,10.9,27.1,10,26,10z M10,8c0-0.2,0-0.4,0-0.6c0.3-2.8,2.5-5.1,5.4-5.4c0.2,0,0.4,0,0.6,0s0.4,0,0.6,0
	c1.5,0.2,2.9,0.9,3.8,2H16v1h5.2c0.2,0.3,0.3,0.7,0.5,1H16v1h5.9c0,0.1,0,0.3,0.1,0.4c0,0.2,0,0.4,0,0.6h-6v1h6v1h-6v1h6v1h-6v1h6v1
	H10V8z M10,15h12v1c0,3.3-2.7,6-6,6s-6-2.7-6-6V15z M6,13v-1h3v1H6z M24,16c0,4.4-3.6,8-8,8s-8-3.6-8-8v-1h1v1c0,3.9,3.1,7,7,7
	s7-3.1,7-7v-1h1V16z M23,13v-1h3v1H23z"/>
</svg>
