<?xml version="1.0" encoding="UTF-8"?><svg id="text" xmlns="http://www.w3.org/2000/svg" viewBox="0 0 644.51 502.32"><defs><style>.cls-1{fill:#fff;}.cls-2{fill:#ffd225;}.cls-3,.cls-4{fill:#92278f;}.cls-5{fill:none;stroke:#fff;stroke-width:15.05px;}.cls-4{font-family:Phosphate-Inline, Phosphate;font-size:180px;stroke:#ffcb05;stroke-miterlimit:10;stroke-width:3px;}</style></defs><g><path class="cls-3" d="M197.88,158.9c73.57-38.35,164.3-9.79,202.65,63.78,30.68,58.86,7.84,131.44-51.02,162.12-47.09,24.54-105.15,6.27-129.7-40.82-19.63-37.67-5.01-84.12,32.65-103.76,30.14-15.71,67.3-4.01,83.01,26.12,12.57,24.11,3.21,53.84-20.9,66.4-19.29,10.05-43.07,2.57-53.12-16.72-8.04-15.43-2.05-34.46,13.38-42.5,12.34-6.43,27.57-1.64,34,10.7,5.15,9.87,1.31,22.05-8.56,27.2"/><g><path class="cls-2" d="M148.59,64.35c11.49-5.91,23.44-11.07,35.76-15.34,12.36-4.17,25.03-7.45,37.89-9.8,12.87-2.27,25.91-3.54,38.95-3.89,13.05-.35,26.09,.44,38.99,2.07,12.91,1.61,25.66,4.33,38.14,7.92,6.26,1.73,12.4,3.87,18.52,6.06,3.03,1.17,6.05,2.36,9.07,3.58,3.01,1.21,5.96,2.6,8.92,3.93,1.48,.68,2.96,1.34,4.42,2.05l4.36,2.2c2.89,1.49,5.81,2.93,8.62,4.57,2.83,1.61,5.66,3.22,8.46,4.88,2.76,1.73,5.51,3.48,8.25,5.25,10.86,7.21,21.22,15.2,30.92,23.96,9.65,8.81,18.65,18.33,26.92,28.44,8.19,10.17,15.58,20.92,22.19,32.09,1.59,2.81,3.17,5.64,4.72,8.48l1.16,2.13c.38,.68,.8,1.56,1.19,2.33l2.36,4.8c1.59,3.19,3.01,6.48,4.42,9.77,.7,1.65,1.41,3.29,2.07,4.96l1.9,5.04c4.98,13.48,8.69,27.5,11.02,41.74,4.69,28.49,3.81,57.78-2.42,85.77-6.21,28-17.74,54.77-33.95,78.58-8.09,11.9-17.35,23.05-27.58,33.23-10.24,10.17-21.47,19.34-33.4,27.33-5.97,3.98-12.09,7.71-18.37,11.09-2.95,1.67-6.69,3.51-10.26,5.23-1.78,.88-3.61,1.69-5.45,2.48l-5.53,2.34c-14.86,6.01-30.58,10.23-46.53,12.57-15.96,2.37-32.18,2.71-48.16,1.22-8-.72-15.92-2-23.76-3.65-7.82-1.74-15.57-3.81-23.13-6.46-7.59-2.56-14.98-5.68-22.23-9.1-7.2-3.54-14.26-7.37-21.01-11.73-13.56-8.63-26.14-18.9-37.28-30.58-11.15-11.65-20.94-24.62-28.94-38.43l-2.91-5.22-1.43-2.62c-.48-.9-1.01-1.98-1.5-2.97-1-2.02-1.99-4.04-2.93-6.08-.92-2.07-1.82-4.15-2.69-6.23-3.42-8.39-6.35-17.04-8.5-25.92-4.4-17.72-6.08-36.12-5.06-54.27,.54-9.07,1.69-18.1,3.54-26.97,1.86-8.87,4.35-17.6,7.46-26.11,3.15-8.49,6.91-16.76,11.24-24.74,4.36-7.97,9.34-15.61,14.82-22.88,11.02-14.52,24.28-27.44,39.06-38.04,1.85-1.31,3.72-2.61,5.6-3.88,1.89-1.26,3.81-2.44,5.74-3.63l2.9-1.76,2.94-1.66,2.96-1.63,1.48-.8,.75-.4,.86-.44c9.13-4.71,18.84-8.6,28.84-11.58,20.02-5.98,41.25-8.14,61.97-6.39l-14.09,167.61c.05-.32-.07-.78,.04-.34,.07,.23,.21,.64,.61,1.43l.03,.06c14.53,27.87,4.02,7.71,7.26,13.92v-.03s-.07-.12-.07-.12l-.14-.25-.26-.44-.24-.37c-.04-.07-.1-.16-.17-.25-.18-.26-.36-.45-.33-.42,.02,.01,.04,.04,.19,.15,.14,.11,.28,.19,.41,.27,.15,.08,.26,.12,.29,.13,.06,.02,.04,0-.07-.01-.09-.02-.22-.04-.41-.05-.33-.03-.74,.05-.48,0,.04-.01,.46-.12,.9-.31,.15-.06,.28-.12,.39-.17,.18-.08,.38-.17,.53-.25l17.6-9.18-.24,.12c-.16,.09-.34,.18-.52,.29-1.22,.72-1.51,1.03-1.59,1.09-.08,.08,.2-.21,.38-.51,.07-.11,.19-.32,.21-.39,.08-.16,.08-.18,.1-.24,.01-.05-.06,.17-.09,.47-.04,.3-.01,.79,0,.84,0,.07,.02-.11-.37-1.07l-.18-.42-.21-.45c-.09-.19-.17-.36-.25-.51l-.06-.11-5.96-11.44h.01s.02-.03,.02-.03c.03-.03,.07-.06,.1-.08,.32-.15,.57-.34,.83-.49,.98-.64,1.65-1.31,2.28-2.24,.62-.91,1.14-2.09,1.4-3.29,.26-1.2,.28-2.34,.1-3.34-.09-.51-.22-1-.42-1.55-.03-.07-.04-.14-.05-.21-.03-.07-.09-.13-.12-.2-.06-.14-.07-.31-.2-.44-.04-.07-.08-.15-.1-.24-.03-.06,.02-.04-.07-.17l-.21-.33c-.27-.44-.51-.9-.74-1.37-1.09-1.73-2.19-3.37-3.39-4.91-1.27-1.48-2.6-2.88-4-4.22-1.45-1.29-3.02-2.46-4.64-3.58-.43-.25-.84-.52-1.24-.81-.44-.23-.88-.46-1.3-.73-.4-.3-.89-.44-1.33-.69-.22-.12-.44-.24-.66-.36-.22-.12-.47-.19-.69-.29-.47-.18-.89-.46-1.37-.62-.48-.16-.94-.35-1.4-.56-.97-.28-1.89-.7-2.88-.92-1.93-.56-3.9-1.03-5.89-1.23-1.98-.21-3.96-.42-5.92-.33-1.96,.09-3.89,.25-5.8,.56-1.9,.39-3.77,.88-5.65,1.46-1.85,.69-3.7,1.5-5.59,2.4L148.59,64.35Z"/><path class="cls-1" d="M179.58,72.87c10.68-4.19,21.62-7.77,32.83-10.44,11.21-2.61,22.59-4.57,34.06-5.55,11.46-.95,22.99-1.22,34.45-.52,11.46,.73,22.86,2.15,34.09,4.49,11.21,2.37,22.27,5.45,33.04,9.36,10.75,3.96,21.24,8.63,31.36,14.05,10.08,5.49,19.79,11.65,29.04,18.49,9.19,6.92,17.92,14.45,26.08,22.58,8.08,8.21,15.64,16.91,22.49,26.15,1.73,2.3,3.33,4.68,4.97,7.03l2.43,3.55,2.3,3.63c1.51,2.43,3.04,4.85,4.49,7.32l4.16,7.48c1.35,2.38,2.77,5.32,4.12,8.08,.68,1.4,1.36,2.79,2.01,4.21l1.86,4.3,1.82,4.31c.6,1.44,1.12,2.92,1.68,4.38,1.08,2.94,2.2,5.86,3.11,8.86,3.88,11.92,6.7,24.23,8.34,36.69,3.27,24.93,1.9,50.36-3.91,74.66-5.79,24.31-16.01,47.54-30.11,68.28-14.06,20.76-32.15,38.92-52.74,53.19l-3.87,2.66c-1.3,.86-2.63,1.68-3.95,2.51-2.65,1.65-5.29,3.32-8.03,4.8l-4.08,2.26-2.05,1.12c-.68,.37-1.51,.77-2.26,1.14-3.08,1.51-6.14,3.06-9.32,4.39-12.62,5.52-25.97,9.66-39.61,12.21-13.65,2.57-27.58,3.48-41.4,2.87-13.82-.61-27.54-2.78-40.82-6.52-13.28-3.72-26.15-8.9-38.28-15.51-12.12-6.63-23.53-14.65-33.9-23.87-10.39-9.2-19.68-19.67-27.64-30.98l-2.94-4.27c-.96-1.43-1.86-2.9-2.78-4.36-.91-1.46-1.82-2.93-2.69-4.41l-2.51-4.49-1.23-2.26-.61-1.14-.65-1.28c-.86-1.71-1.7-3.44-2.52-5.17-.83-1.73-1.57-3.51-2.33-5.28-.76-1.77-1.5-3.54-2.17-5.36-2.8-7.19-4.98-14.67-6.74-22.22-1.72-7.57-2.85-15.27-3.5-23-.59-7.74-.64-15.49-.17-23.21,.53-7.71,1.55-15.38,3.12-22.93,1.61-7.54,3.69-14.97,6.32-22.22,2.66-7.23,5.76-14.31,9.4-21.12,7.27-13.62,16.5-26.27,27.38-37.36,5.45-5.53,11.25-10.73,17.43-15.39,3.05-2.39,6.26-4.55,9.45-6.72,3.25-2.06,6.51-4.14,9.87-5.96l2.52-1.39c.87-.47,1.62-.89,2.64-1.4,1.94-.97,3.89-1.92,5.84-2.85,1.99-.89,3.99-1.75,6-2.58,2.01-.83,4.08-1.58,6.13-2.33,8.25-2.93,16.8-5.13,25.47-6.56l23.76,145.04s.01,.09,.13,.43l.11,.29c.06,.15,.11,.27,.17,.38,.08,.19,.16,.36,.24,.51l.03,.05c-1.57-3.02,13.76,26.4,7.26,13.94v-.03s-.07-.11-.07-.11l-.13-.24c-.24-.4-.29-.51-.49-.81l-.16-.24-.14-.19c-.21-.27-.21-.26-.22-.27,.02,.03,.39,.32,.63,.43,.12,.07,.25,.12,.26,.12,.04,.01,.04,0-.08-.02-.08-.02-.2-.04-.4-.05-.14-.01-.31-.01-.46,0-.07,0-.17,.02-.09,0l.24-.07,.17-.06,.3-.11,.35-.14,.39-.18c.18-.08,.35-.16,.5-.24l.11-.06c-2.26,1.17,19.77-10.3,10.45-5.44h0s.02,.03,.02,.03c.02,.03,.04,.05,.06,.08,.04,.06,.06,.12,.08,.19,.04,.05,.09,.09,.12,.14,.04,.05,.04,.12,.08,.16,.05,.04,.08,.08,.11,.13,.25,.36,.47,.65,.78,.89,.3,.25,.63,.49,1.01,.73,.4,.21,.86,.37,1.31,.51,.46,.16,.93,.21,1.36,.22,.43,0,.82,.03,1.2-.06,.37-.09,.74-.2,1.19-.39,.13,0,.22-.14,.36-.16,.05-.02,.03,.02,.14-.05l.3-.19c.2-.12,.41-.24,.62-.35,.45-.19,.8-.49,1.2-.72,.19-.12,.41-.22,.6-.35,.18-.14,.36-.28,.55-.41,2.96-2.07,5.48-4.53,7.49-7.52,2.01-2.98,3.53-6.42,4.38-10,.86-3.59,1.04-7.26,.61-10.76-.23-1.76-.64-3.47-1.2-5.18-.08-.44-.32-.84-.45-1.28-.08-.21-.12-.44-.22-.65-.1-.21-.2-.42-.29-.63-.09-.21-.17-.43-.25-.65-.1-.21-.23-.42-.33-.63-.24-.45-.31-.77-.77-1.51-.37-.64-.73-1.3-1.07-1.96l-1.18-1.87-.56-.95-.64-.88c-.43-.58-.8-1.22-1.24-1.79-1.73-2.33-3.65-4.47-5.63-6.56-2.06-2.01-4.25-3.88-6.53-5.65-2.35-1.69-4.81-3.24-7.35-4.67-2.59-1.36-5.27-2.53-8.01-3.59-2.76-1-5.61-1.75-8.47-2.39-2.87-.61-5.78-.91-8.68-1.14-2.9-.2-5.8-.06-8.67,.13-2.88,.22-5.7,.79-8.51,1.38-2.8,.66-5.54,1.62-8.28,2.62L179.58,72.87Z"/><path class="cls-2" d="M204.81,84.64c1.21-.37,2.42-.77,3.64-1.1l3.68-.97c2.46-.62,4.91-1.31,7.39-1.84l7.46-1.55c1.24-.27,2.49-.49,3.75-.68l3.76-.59c5.01-.86,10.08-1.29,15.13-1.82,2.53-.18,5.07-.31,7.6-.45,1.27-.06,2.54-.15,3.8-.17l3.81-.04c10.15-.17,20.29,.51,30.34,1.8,10.06,1.23,19.98,3.37,29.74,6.01l7.29,2.12,7.19,2.43c2.4,.79,4.76,1.72,7.11,2.66l3.53,1.4c1.18,.46,2.35,.95,3.5,1.48l6.92,3.13c2.29,1.07,4.53,2.26,6.79,3.4l3.37,1.74,3.31,1.87c2.19,1.27,4.41,2.49,6.57,3.83,8.65,5.3,16.9,11.24,24.78,17.65,7.78,6.53,15.21,13.49,22.06,21.01,1.75,1.84,3.35,3.82,5.02,5.73,1.65,1.93,3.31,3.86,4.83,5.88l4.64,6.04c1.48,2.06,2.92,4.14,4.36,6.23l2.15,3.14,2.02,3.21c1.33,2.15,2.69,4.29,3.97,6.46l3.68,6.61,.91,1.66c.3,.55,.6,1.09,.91,1.72l1.8,3.65c4.76,9.75,8.74,19.96,11.77,30.47,3,10.52,5.09,21.31,6.21,32.2,2.25,21.77,.69,43.88-4.71,64.99-5.36,21.12-14.4,41.28-26.68,59.36-12.27,18.08-27.89,33.97-45.65,46.68-2.24,1.55-4.46,3.14-6.75,4.62-2.3,1.45-4.61,2.89-6.94,4.31-2.35,1.36-4.73,2.66-7.11,3.97-.61,.33-1.17,.65-1.81,.98l-1.98,.99-3.98,1.94c-10.7,5.04-22.04,8.93-33.69,11.49-23.3,5.16-47.69,5.16-70.82-.1-23.13-5.21-45.14-15.44-63.96-30.07-9.42-7.29-18.05-15.64-25.66-24.81-1.92-2.28-3.7-4.67-5.51-7.03-1.76-2.4-3.43-4.85-5.11-7.31-1.58-2.5-3.17-5.01-4.67-7.56l-2.16-3.87-1.06-1.94-.53-.98-.55-1.09c-1.45-2.91-2.88-5.83-4.13-8.85-1.32-2.98-2.45-6.06-3.56-9.14-2.12-6.2-3.93-12.54-5.18-19-.7-3.21-1.14-6.48-1.62-9.73-.36-3.26-.76-6.53-.91-9.81-.43-6.56-.31-13.13,.17-19.66,2-26.13,11.28-51.5,26.66-72.8,.94-1.34,1.93-2.66,2.95-3.94,1.01-1.29,2.02-2.59,3.07-3.85,2.14-2.5,4.27-5,6.57-7.35,4.52-4.78,9.42-9.19,14.55-13.28,5.13-4.11,10.58-7.76,16.17-11.12,1.4-.82,2.83-1.61,4.25-2.39l2.14-1.17c.72-.39,1.59-.81,2.39-1.21,3.23-1.63,6.57-3.09,9.95-4.46l47.3,119.18c.05,.13,.11,.27,.16,.38l.22,.46,3.81,7.34s-.06,.05-.1,.07c-.07,.05-.15,.07-.22,.1-.23,.19-.5,.3-.68,.48-.19,.17-.4,.3-.55,.51-.12,.06-.15,.2-.26,.27-.04,.05-.06,.12-.11,.16-.05,.04-.09,.09-.12,.15-.62,.82-1.1,2.05-1.15,3.15,0,.27-.05,.54,0,.79-.04,.13,.06,.25,.01,.38,.08,.11,0,.25,.08,.36,0,.25,.15,.48,.19,.74,.08,.12,.07,.26,.17,.39,.02,.15,.14,.27,.19,.43l.02,.06,.09,.15,.19,.31c.12,.21,.23,.42,.34,.64,.25,.4,.52,.78,.74,1.21,.3,.36,.53,.75,.8,1.13,.31,.33,.54,.74,.85,1.07,1.16,1.39,2.46,2.63,3.89,3.75,2.84,2.26,6.36,3.84,10,4.69,3.66,.86,7.38,.77,10.89,.04,1.76-.37,3.49-.96,5.21-1.78,.21-.12,.43-.22,.65-.32l.33-.14c.12-.06,.31-.18,.46-.26,.63-.38,1.29-.71,1.94-1.06,.61-.4,1.22-.79,1.85-1.16,.61-.39,1.17-.84,1.78-1.23,4.65-3.37,8.7-7.42,11.92-12.18,3.21-4.76,5.63-10.14,7.07-15.76,1.48-5.63,1.82-11.48,1.24-17.14-.29-2.84-.83-5.63-1.59-8.38-.8-2.74-1.86-5.43-3.15-8.08l-.47-1c-.06-.15-.19-.36-.3-.57l-.35-.61c-.46-.82-.92-1.64-1.35-2.48l-1.49-2.37-.72-1.2-.81-1.13-1.58-2.29c-.58-.72-1.15-1.45-1.71-2.19-.53-.76-1.16-1.44-1.76-2.13-.62-.68-1.15-1.44-1.81-2.09-9.86-10.92-23.06-18.92-37.46-22.89-14.41-3.99-29.72-3.8-43.82,.47l-39.74-131.54Z"/><path class="cls-1" d="M229.66,98.48c34.7-6.75,71.11-4,104.23,7.98,33.13,11.87,63.15,32.77,85.58,60.11,5.55,6.85,10.81,13.97,15.38,21.49,2.39,3.7,4.47,7.57,6.59,11.42l.79,1.44,.78,1.56,1.54,3.13,1.52,3.14,1.39,3.21c7.48,17.08,11.92,35.59,13.3,54.24,1.37,18.68-.54,37.51-5.35,55.52-4.84,18.02-12.77,35.18-23.25,50.66-10.52,15.46-23.72,29.14-38.74,40.27-3.79,2.72-7.62,5.41-11.61,7.81l-2.98,1.83-3.04,1.71-3.05,1.69-1.53,.84-1.67,.83c-8.87,4.48-18.27,8.06-27.96,10.62-19.38,5.14-39.85,6.1-59.56,2.87-19.71-3.25-38.69-10.62-55.43-21.57-8.37-5.48-16.19-11.83-23.24-18.96-7.05-7.13-13.34-15.01-18.72-23.41l-1.98-3.18-.98-1.59-.91-1.63-1.81-3.26-.89-1.65-.9-1.81-1.76-3.63-1.61-3.71c-1.09-2.46-1.98-5.03-2.92-7.56-3.52-10.24-5.75-20.97-6.49-31.79-1.55-21.66,2.79-43.52,12.22-62.95,9.42-19.43,24.17-36.45,42.16-48.5l55,81.75c-1.83,1.26-3.5,2.67-4.91,4.35-1.46,1.63-2.64,3.52-3.65,5.51-1.93,4.03-2.87,8.62-2.53,12.99,.14,2.19,.61,4.32,1.31,6.42,.23,.51,.35,1.05,.61,1.56l.32,.78c.14,.25,.27,.51,.39,.77l.18,.39,.29,.51,.58,1.04,.28,.53,.32,.49,.62,1c3.37,5.28,7.76,9.73,12.99,13.12,5.21,3.4,11.2,5.74,17.39,6.77,6.19,.99,12.49,.68,18.47-.9,2.99-.79,5.92-1.9,8.76-3.33l.54-.25,.63-.36,1.27-.71,1.28-.69,1.22-.78c1.67-.97,3.21-2.12,4.79-3.21,6.14-4.58,11.49-10.11,15.81-16.44,4.26-6.36,7.58-13.43,9.57-20.89,1.95-7.45,2.78-15.2,2.2-22.82-.6-7.61-2.32-15.11-5.46-22.17l-.56-1.34-.65-1.3-.64-1.31-.31-.66-.41-.73c-1.1-1.93-2.11-3.93-3.34-5.76-2.27-3.81-4.94-7.32-7.68-10.77-11.15-13.59-26.11-24-42.78-30.01-16.67-6.06-34.93-7.35-52.15-4.02l-18.84-96.71Z"/><path class="cls-2" d="M248.82,115.28c15.18-1.65,30.54-1.16,45.6,1.12,7.52,1.22,14.99,2.77,22.29,4.95,3.68,.99,7.27,2.27,10.87,3.5,1.81,.6,3.56,1.36,5.33,2.04,1.76,.72,3.56,1.36,5.28,2.18l5.21,2.35c1.74,.77,3.41,1.7,5.11,2.54,3.42,1.67,6.7,3.62,10.01,5.52,6.51,3.96,12.87,8.19,18.82,12.97,3.04,2.3,5.89,4.84,8.77,7.35,1.46,1.23,2.79,2.61,4.18,3.91,1.36,1.34,2.79,2.6,4.08,4.01,2.62,2.77,5.29,5.5,7.72,8.45,1.23,1.46,2.51,2.88,3.68,4.38l3.5,4.53c1.19,1.49,2.27,3.06,3.36,4.63l3.25,4.7,3.02,4.84,1.5,2.43c.49,.82,.93,1.66,1.4,2.48l2.76,4.99c.91,1.67,1.76,3.51,2.63,5.26,.43,.89,.88,1.77,1.28,2.67l1.17,2.72c.76,1.82,1.59,3.62,2.25,5.49,2.9,7.37,5.07,15.02,6.71,22.77,1.63,7.76,2.67,15.65,2.97,23.57,1.49,31.69-7.67,63.6-25.49,89.79-4.44,6.56-9.48,12.72-14.92,18.48-2.7,2.91-5.6,5.61-8.5,8.31l-4.52,3.87c-1.5,1.29-3.11,2.45-4.67,3.68-6.32,4.76-12.96,9.13-19.95,12.79l-1.3,.71-1.39,.69-2.78,1.36c-1.84,.94-3.77,1.69-5.67,2.52-3.82,1.59-7.73,2.99-11.7,4.18-15.88,4.81-32.77,6.34-49.23,4.5-16.47-1.82-32.52-7-46.97-15.11-14.45-8.09-27.29-19.17-37.39-32.33l-1.89-2.47-1.78-2.55-1.76-2.56-1.65-2.63-1.63-2.64-1.51-2.7-1.49-2.71-1.45-2.92c-1.93-3.91-3.54-7.98-4.97-12.11-1.35-4.16-2.57-8.38-3.39-12.69-3.53-17.2-2.48-35.21,2.71-51.88,2.65-8.32,6.26-16.35,10.87-23.78,4.63-7.42,10.12-14.34,16.48-20.38l41.27,43.02c-5.41,5.14-9.44,11.75-11.73,18.95-2.22,7.22-2.69,14.95-1.17,22.26,.74,3.66,1.92,7.24,3.6,10.64l.62,1.29,.79,1.42,.78,1.42,.86,1.37,.85,1.38,.92,1.32,.91,1.33,.99,1.27c5.22,6.79,11.81,12.48,19.3,16.68,7.49,4.2,15.86,6.93,24.41,7.86,8.55,.94,17.22,.15,25.41-2.33,2.05-.61,4.07-1.34,6.06-2.17,.98-.45,2-.8,2.96-1.31l1.46-.71,.73-.35,.78-.44c4.23-2.19,8.16-4.84,11.94-7.66,.92-.74,1.9-1.4,2.78-2.18l2.69-2.29c1.71-1.62,3.45-3.2,5.04-4.94,3.23-3.43,6.24-7.07,8.88-10.98,10.61-15.6,16.14-34.79,15.23-53.63-.16-4.71-.8-9.4-1.77-14-.98-4.6-2.23-9.16-3.99-13.55-.37-1.12-.9-2.19-1.35-3.28l-.69-1.64c-.24-.54-.52-1.07-.78-1.6-.55-1.07-.99-2.12-1.61-3.22l-1.85-3.34c-.31-.55-.6-1.12-.93-1.67l-1.01-1.61-2-3.24-2.17-3.12c-.72-1.05-1.42-2.1-2.23-3.08-6.11-8.07-13.17-15.41-21.16-21.62-3.93-3.19-8.18-5.97-12.49-8.62-2.21-1.24-4.37-2.57-6.66-3.66-1.14-.56-2.23-1.2-3.4-1.7l-3.47-1.56c-1.14-.56-2.35-.96-3.52-1.44-1.19-.44-2.34-.98-3.55-1.37-2.41-.8-4.79-1.69-7.24-2.33-4.86-1.47-9.84-2.48-14.84-3.3-10.02-1.5-20.23-1.86-30.28-.74l-6.19-59.3Z"/><path class="cls-5" d="M221.19,275.11c-2.58,5.11-4.5,10.53-5.83,16.1-1.32,5.56-2.04,11.28-2.03,17-.01,5.72,.62,11.43,1.89,17.01,1.3,5.57,3.25,10.98,5.77,16.12,5.12,10.28,12.1,19.68,20.59,27.45,8.49,7.77,18.42,13.94,29.13,18.14,10.71,4.21,22.19,6.44,33.7,6.54,11.51,.12,23.02-1.96,33.77-6.05,5.39-2.02,10.53-4.62,15.56-7.5,4.95-2.99,9.75-6.23,14.26-9.85,4.47-3.67,8.74-7.57,12.66-11.83,3.88-4.28,7.52-8.78,10.78-13.56,3.22-4.8,6.13-9.8,8.67-15,2.48-5.22,4.62-10.6,6.39-16.11,1.7-5.53,3.01-11.17,3.96-16.87,.9-5.71,1.35-11.49,1.46-17.26,.08-5.78-.35-11.56-1.09-17.29-.76-5.73-2.06-11.38-3.63-16.94-1.62-5.55-3.72-10.95-6.07-16.23-1.29-2.59-2.48-5.22-3.95-7.73l-2.11-3.81c-.73-1.25-1.52-2.47-2.28-3.71-12.2-19.76-29.27-36.41-49.14-48.4-9.97-5.94-20.61-10.74-31.66-14.29-11.07-3.47-22.55-5.65-34.12-6.53"/><g><path class="cls-2" d="M300.26,311.44c1.68-3.79,1.85-7.64,.9-10.72-.93-3.09-3.05-5.46-5.46-6.55-.6-.27-1.27-.48-1.87-.6-.7-.12-1.25-.17-1.94-.13-.16,0-.32,.02-.48,.04-.12,.01-.4,.06-.32,.04,.02,0-.04,0-.04,0-.03,0,.03,0-.03,0-.05,.01-.09,.03-.11,.04l-.03,.02-.12,.05c-.07,.03-.13,.06-.18,.09l-4.32,2.25-.19,.1,.04-.02c.06-.03,.12-.07,.2-.12l.11-.07,.09-.07,.07-.06s-.13,.17-.15,.25c-.04,.1,0,.02,.02-.13,.02-.14-.04-.29,.06,.03,.02,.05,0,0,.04,.1,.03,.08,.06,.16,.09,.22l3.06,5.85-.08-.16-.12-.19c-.05-.07-.11-.16-.1-.15-.02-.04-.06-.1-.13-.18-.08-.1-.02-.03,.07,.03,.14,.1,.28,.14,.24,.12-.06-.02-.15-.04-.3-.04-.13,0-.05,0-.16,.01,.13-.03,.02,0,.26-.08l.28-.11,.2-.09,.08-.04,.04-.02h.02c14.26-7.44,3.95-2.07,7.13-3.73h0c-.1,.05-.21,.11-.34,.19l-.21,.14c-.09,.06-.05,.03-.09,.06-.04,.03-.11,.07-.19,.14l-.06,.05h0s0,0,0,0c0,0-.08,.07-.06,.05,.03-.03,.04-.05,.04-.05,0,0-.02,.02,0,0l.05-.07s.04-.05,.03-.05c.04-.05,.07-.1,.08-.12l.04-.08s.02-.06,.02-.06l.02-.06s0-.04-.01,.03c-.01,.06,0,.01-.01,.05l-.02,.11s0,.03,0,.08v.08s0,0,0,.01c0,.02,0,.07,0,.14,0-.02,0-.02,0,0v.05s0-.04,0-.04c0-.04-.02-.06-.01-.05,0,0,0,.02,0,0l-.02-.08-.04-.12-.08-.2c-.06-.17-.13-.31-.19-.42l-.09-.15c4.15,7.97-5.67-10.87-4.65-8.93h0s0,.03,0,.03l.02,.04,.04,.08c.05,.11,.12,.23,.21,.37l.14,.21c.07,.09,.03,.05,.06,.09,.02,.04,.06,.1,.12,.17,.05,.06,.16,.19,.11,.14,.2,.21-.15-.13-.37-.21-.24-.12-.2-.04,.09-.01,.26,.05,.65-.06,.17,.08-.08,.03-.15,.05-.19,.07-.04,.02,0,0-.09,.04l-.24,.09c-.15,.06-.28,.12-.38,.18l-.15,.08c-22.29,11.62-6.17,3.22-11.14,5.81h.01s.02-.02,.02-.02l.05-.02,.1-.05c.63-.35,.93-.56,1.12-.71,.2-.15,.25-.21,.2-.16-.04,.04-.1,.11-.19,.24-.18,.26-.26,.5-.25,.48L367.33,0c29.3,13.9,55.62,32.21,78.06,53.69,22.42,21.5,40.95,46.21,54.57,72.39,6.83,13.06,12.49,26.47,16.87,39.89l1.62,5.04c.65,1.99,1.29,3.99,1.9,5.99,1.23,4,2.37,8.01,3.42,12.02,.53,2,1.03,4.01,1.52,6.01,.48,2,.89,4.07,1.31,6.1,.82,4.08,1.56,8.17,2.21,12.24,1.36,8.11,2.07,16.37,2.56,24.52,.54,8.14,.4,16.27,.07,24.31-.28,8.04-1.23,15.96-2.35,23.78-1.08,7.83-2.8,15.46-4.67,22.99-7.7,30.03-21.2,57.25-38.83,80.23-17.6,22.99-39.46,41.77-63.2,55.01-2.93,1.71-5.95,3.21-8.97,4.69-3.02,1.47-6.05,2.88-9.09,4.22-3.03,1.37-6.09,2.53-9.16,3.65-3.07,1.12-6.14,2.17-9.21,3.16l-4.64,1.44c-1.81,.56-3.63,1.09-5.45,1.61-3.63,1.02-7.28,1.95-10.91,2.78-3.64,.82-7.38,1.46-11.06,2.05-3.7,.56-7.34,1.1-11.05,1.39-7.41,.59-14.73,.95-22.01,.6-3.63-.14-7.24-.36-10.81-.69-3.57-.4-7.11-.88-10.61-1.45-1.75-.28-3.49-.59-5.22-.91-1.73-.33-3.44-.74-5.14-1.13-3.41-.81-6.77-1.69-10.09-2.65-3.31-.97-6.55-2.13-9.75-3.3-3.2-1.2-6.36-2.39-9.42-3.82-24.59-11.01-45.26-27.58-60.05-47.44-1.84-2.48-3.62-4.99-5.31-7.52-1.68-2.53-3.21-5.17-4.71-7.78-1.46-2.63-2.95-5.22-4.18-7.92-1.26-2.68-2.46-5.38-3.57-8.08-1.15-2.69-2.09-5.41-2.97-8.13-.89-2.72-1.7-5.44-2.45-8.15l-.63-2.3-.62-2.38c-.4-1.59-.77-3.18-1.12-4.76-.72-3.15-1.24-6.37-1.66-9.58-.92-6.38-1.15-12.81-1.07-19.09,.25-6.31,.82-12.47,2.01-18.46,2.29-11.95,6.34-23.11,11.93-32.97,5.56-9.87,12.46-18.53,20.3-25.7,7.88-7.15,16.65-12.77,25.69-16.75,2.28-.96,4.56-1.84,6.83-2.64,2.26-.81,4.58-1.4,6.85-2,1.14-.29,2.27-.56,3.4-.81,1.25-.28,2.59-.57,3.88-.82,2.6-.5,5.16-.91,7.78-1.11,10.38-.98,20.55,.24,29.53,3.22,9,2.97,16.85,7.65,23.17,13.34,6.32,5.69,11.12,12.41,14.2,19.39,1.55,3.49,2.64,7.04,3.36,10.51,.16,.88,.31,1.75,.44,2.61l.18,1.29,.16,1.34c.11,.95,.19,1.89,.25,2.82,.07,.92,.1,1.85,.08,2.78-.05,7.38-2.05,14.16-5.37,19.43-3.31,5.28-7.72,9.14-12.4,11.3-4.67,2.19-9.46,2.7-13.49,1.93Z"/><path class="cls-1" d="M311.1,293.82c-2.26-2.93-5.16-4.82-8.02-5.62-.72-.2-1.39-.35-2.17-.48-.76-.12-1.42-.25-2.16-.25-.73-.01-1.42,0-2.08,.06-.71,.09-1.37,.22-1.98,.36-2.56,.68-4.7,2.08-6.18,3.91-.37,.46-.68,.9-.98,1.44-.3,.54-.51,.97-.72,1.56-.1,.28-.19,.55-.26,.82l-.1,.4s0-.01,0,0c0,0,0-.03,.01-.08,.02-.11,0-.27,.01-.19,0,0,0,0,0,0l.03,.12,.09,.23,.08,.18,.04,.07,.02,.03,2.98,5.71h0s0-.02,0-.02c-.04-.09-.1-.2-.18-.32l-.14-.22s-.12-.16-.12-.16c.03,.02-.09-.1,0-.02-.04-.03,.09,.08,.09,.07l.1,.06s.02,0,.02,0l.06,.03c.22,.09-.02-.04-.32,0,.07-.01-.13,.02,.01,0,.01,0,.02,0,.02,0,0,0-.03,0,.04-.01,.09-.03,.15-.05,.19-.07h.03s.1-.05,.1-.05l.2-.08,7.3-3.82c-.09,.04-.2,.1-.32,.17-.12,.07-.29,.19-.28,.18-.52,.38-.2,.17-.11-.05,.12-.23,.07-.23,.04,0-.05,.22,.08,.59-.11,0l-.03-.05-.08-.22c-.06-.13-.11-.25-.16-.34l-.04-.07v-.02s-4.67-8.93-4.67-8.93v.03s.08,.14,.08,.14c.05,.1,.11,.21,.19,.33l.28,.43c.04,.06,.1,.13,.16,.2-.01-.01-.01-.01,0,0,.12,.13-.14-.12-.33-.2-.2-.11-.27-.09-.05-.05,.19,.05,.57,.01,.48,.03-.03,0-.04,.01-.04,.01h.01s-.14,.04-.14,.04c-.08,.02-.15,.05-.2,.07l-.06,.03h-.02s-.1,.05-.1,.05c-.3,.11-.52,.23-.69,.32h-.02s0,.01,0,.01c2.42-1.26-21.12,11.01-11.15,5.81l.04-.02,.09-.05,.19-.1,.34-.2c.09-.05,.19-.11,.29-.19l.19-.12,.15-.11,.12-.1c.1-.08,.11-.1,.09-.08-.1,.1-.28,.37-.37,.56L406.02,42.8c21.53,15.78,40.35,34.4,55.85,54.83,7.74,10.23,14.64,20.89,20.66,31.83,5.96,10.96,11.15,22.15,15.28,33.45,1.07,2.82,2.04,5.65,2.96,8.47l1.36,4.24,1.36,4.41c2.09,6.69,3.92,13.42,5.5,20.13,1.54,6.74,2.7,13.65,3.67,20.43,.24,1.7,.46,3.4,.67,5.1,.18,1.71,.33,3.42,.48,5.13,.29,3.42,.51,6.84,.67,10.24,1.2,27.23-2.68,53.8-10.72,77.93-8.04,24.15-20.12,45.96-35.23,64.47-15.09,18.52-33.17,33.78-52.65,44.95-2.43,1.4-4.88,2.76-7.32,4.06-2.48,1.24-4.98,2.43-7.48,3.57-5.01,2.27-10.01,4.41-15.09,6.08-2.53,.87-5.07,1.69-7.6,2.46l-3.79,1.12-4.28,1.21c-2.97,.81-5.94,1.55-8.91,2.22-1.48,.34-2.96,.65-4.44,.95-1.51,.27-3.01,.53-4.52,.77-6.03,.94-11.97,1.69-17.99,1.9-2.99,.14-5.97,.21-8.93,.21-2.96-.01-5.91-.18-8.84-.36-2.93-.2-5.83-.43-8.7-.79-2.87-.39-5.72-.84-8.54-1.35-5.64-.95-11.12-2.41-16.47-4-1.34-.41-2.67-.8-3.98-1.25-1.31-.46-2.61-.93-3.9-1.41-2.58-.97-5.13-1.98-7.63-3.05-4.98-2.19-9.79-4.66-14.4-7.27-2.29-1.36-4.53-2.77-6.73-4.21-2.2-1.45-4.36-2.88-6.42-4.49-4.15-3.18-8.15-6.35-11.83-9.92-14.85-13.94-25.82-30.8-32.12-48.1-.84-2.14-1.5-4.32-2.14-6.49-.64-2.17-1.22-4.33-1.76-6.48l-.84-3.51c-.29-1.25-.56-2.49-.81-3.73-.49-2.5-.98-4.93-1.26-7.45-.31-2.51-.55-5-.72-7.47-.18-2.46-.16-4.96-.15-7.41,0-4.89,.55-9.73,1.21-14.41,1.59-9.37,4.34-18.17,8.24-26.1,3.92-7.91,8.7-15.01,14.35-21.03,.7-.76,1.38-1.5,2.1-2.23,.73-.71,1.47-1.42,2.22-2.1,1.5-1.37,2.96-2.71,4.52-3.95,3.15-2.46,6.3-4.73,9.66-6.62,3.27-1.98,6.73-3.54,10.11-4.94,1.7-.69,3.45-1.24,5.16-1.79,1.72-.54,3.41-1.04,5.14-1.38,1.72-.37,3.42-.69,5.1-.97l1.36-.22,1.42-.2c.94-.13,1.88-.24,2.81-.34,1.84-.22,3.75-.24,5.59-.27,.92,0,1.83,0,2.74,.03,.92,.06,1.83,.13,2.72,.21,7.19,.65,13.86,2.63,19.59,5.58,11.49,5.93,19.06,15.6,22,25.18,.35,1.22,.65,2.42,.91,3.58,.21,1.2,.36,2.39,.49,3.54,.14,1.14,.1,2.32,.1,3.43,0,1.08-.09,2.25-.21,3.37-.52,4.46-2.22,8.34-4.54,11.19Z"/><path class="cls-2" d="M301.17,275.43c-3.26,.18-6.19,.96-8.68,2.3-2.48,1.33-4.45,3.1-5.81,5.07-1.36,2.03-2.07,4.24-2.17,6.35-.02,.56,0,1.09,.04,1.59,.04,.48,.14,1.07,.25,1.55,.06,.25,.12,.49,.19,.72,.07,.24,.09,.55,.14,.81,.09,.54,.21,1.06,.34,1.55,.11,.46,.34,1.03,.53,1.49,.21,.48,.42,.92,.67,1.36,.28,.46,.57,.89,.87,1.29,.15,.2,.3,.39,.46,.57,.16,.19,.35,.4,.53,.58,.18,.19,.36,.36,.55,.53l.14,.12c.06,.05,.02,.01,.03,.02h0s.07,.05,.07,.05c0,0,.1,.07,.13,.08,0,0,.05,.03,.07,.04,.03,.01,.03,.01,.03,.01,.03,.01,.05,.02,.05,.02-.01,0-.02,0,0,0,0,0,0,0-.04-.01h-.03c-.09-.02-.06-.02-.17-.03-.29-.03-.35,.13,.53-.28l7.25-3.79-.12,.06c-.09,.04-.18,.1-.29,.17l-.17,.11c-.07,.05-.04,.02-.07,.04-.03,.02-.08,.05-.13,.09l-.14,.11c-.09,.09,0-.01,0-.01,.08-.08,.25-.4,.24-.43,0-.06-.06,.22-.05,.42-.01,.19,.09,.18-.31-.7l-4.76-9.12c.03,.08,.08,.16,.13,.26s.11,.2,.19,.31l.12,.17,.03,.05c.04,.06,.11,.17,.22,.3,.03,.03,0,0,.05,.06,.01,.01-.15-.12-.34-.22-.23-.13-.31-.11-.14-.07,.18,.04,.39,.05,.54,.04h.04s.09-.02,.02,0c-.08,.02-.1,.03-.08,.02-.08,.02-.29,.08-.34,.11l-.05,.02h-.02s-.1,.05-.1,.05c-.13,.05-.25,.1-.35,.15-.1,.05-.2,.1-.28,.14l-.06,.03-.03,.02-11.16,5.82h0s.02-.01,.02-.01l.16-.08,.35-.2,.24-.14c.37-.24,.49-.33,.65-.45,.18-.15,.08-.09-.04,.08L432.91,89.41c14.64,15.86,26.94,33.33,36.6,51.54,4.78,9.13,8.99,18.4,12.43,27.76,.86,2.34,1.71,4.68,2.5,7.02,.77,2.34,1.5,4.68,2.21,7.03l2.21,7.53c.79,2.76,1.54,5.52,2.25,8.29,1.41,5.53,2.65,11.01,3.55,16.66,.93,5.61,1.73,11.19,2.24,16.77,.46,5.61,.74,11.21,.84,16.74,.08,2.76,0,5.53-.09,8.29-.1,2.76-.24,5.5-.42,8.23-1.58,21.82-6.5,42.68-14.42,61.56-7.89,18.89-18.53,35.88-31.13,50.47-12.64,14.58-27.38,26.65-43.01,35.88-3.94,2.27-7.89,4.44-11.89,6.39-4.04,1.88-8.11,3.62-12.16,5.22-1.02,.4-2.03,.8-3.04,1.17l-3.07,1.02c-2.05,.67-4.09,1.3-6.14,1.9-2.04,.6-4.08,1.17-6.12,1.7l-3.46,.89-3.56,.86c-18.93,4.43-38.38,4.91-56.22,1.7-17.88-3.17-34.16-9.9-47.89-19.02-13.75-9.12-25-20.66-33.19-33.36-2.04-3.19-3.96-6.36-5.57-9.7-1.64-3.31-3.2-6.57-4.4-9.96-1.23-3.37-2.43-6.67-3.22-10.05-.43-1.68-.82-3.35-1.18-5.01l-.51-2.48-.54-2.84c-2.79-15.05-1.61-30.14,2.96-42.9,1.17-3.19,2.39-6.27,3.93-9.16,.75-1.45,1.49-2.88,2.32-4.25,.84-1.37,1.71-2.7,2.59-4,.44-.65,.88-1.29,1.34-1.92l1.44-1.84c.97-1.21,1.95-2.38,2.94-3.51,1.03-1.11,2.1-2.18,3.16-3.22,1.07-1.03,2.12-2.04,3.28-2.96,8.97-7.51,19.24-12.05,29.02-13.39,1.23-.16,2.44-.28,3.63-.38,.61-.05,1.16-.1,1.8-.13l1.93-.07c1.28-.02,2.5-.07,3.75,.04,1.25,.09,2.47,.21,3.65,.36,4.8,.73,9.16,2.24,12.9,4.3,3.74,2.12,6.82,4.78,9.18,7.66,2.37,2.88,3.96,6.11,4.86,9.21Z"/><path class="cls-1" d="M280.54,271.41c-.88,1.05-1.58,2.31-2.21,3.42-.31,.57-.56,1.21-.8,1.79-.24,.6-.46,1.13-.64,1.78-.36,1.26-.71,2.38-.87,3.61-.08,.61-.15,1.2-.2,1.78-.06,.57-.09,1.13-.06,1.73,.04,4.58,1.65,8.61,4.19,11.44,.33,.36,.6,.67,.97,1,.36,.33,.72,.63,1.08,.9,.67,.54,1.54,1.04,2.31,1.41l.59,.27,.65,.24c.43,.15,.85,.28,1.26,.38,.8,.2,1.86,.32,2.52,.34-.24-.02-.35,.09,.26-.15,.11-.04,.2-.09,.28-.13l.11-.06,7.15-3.73h-.02s-.05,.03-.05,.03c-.14,.07-.32,.17-.53,.31-.06,.04-.12,.07-.23,.16l-.07,.06s0,0,0,0c0,0,0,0-.03,.02-.04,.05,.13-.16,.19-.29,.07-.13,.07-.21,.04-.05-.03,.14-.02,.43-.01,.46-.01-.07-.02-.1-.02-.08-.02-.07-.07-.24-.1-.29l-.02-.04-.06-.15c-.04-.11-.09-.2-.13-.29l-4.77-9.14,.1,.22c.08,.16,.19,.34,.34,.55,.04,.06,.07,.11,.14,.21l.13,.16s-.01,0,0,0c0,0,.04,.05,.09,.1-.13-.17-.71-.44-.61-.37,.12,.02,.02,.02,.22,.04,.02,0,.03,0,.1,.01h.12s0,0,.02,0c.34-.02,.17-.01,.08,.03-.33,.1-.22,.08-.77,.3l-.25,.12-.1,.06h-.02s-.01,.02-.01,.02l-11.16,5.82,.07-.03c.16-.08,.43-.24,.56-.31,.63-.38,.84-.59,.89-.62l166.76-157.18c8.81,14.45,15.76,29.57,20.78,44.74,1.28,3.79,2.36,7.59,3.41,11.38l1.75,6.4c.59,2.22,1.14,4.44,1.66,6.66,2.17,8.8,3.48,17.91,4.41,26.81,.44,4.46,.61,8.97,.74,13.41,.11,4.45,.13,8.85-.15,13.25-.23,4.39-.58,8.75-1.04,13.04-.52,4.29-1.24,8.55-2.01,12.74-.39,2.1-.81,4.18-1.26,6.24-.48,2.06-1.02,4.1-1.56,6.13-1.1,4.06-2.27,8.06-3.58,11.97-2.81,7.79-5.8,15.35-9.55,22.46-7.18,14.32-16.37,27.12-26.67,38.22-2.61,2.76-5.28,5.43-7.98,8-2.73,2.55-5.61,4.95-8.46,7.28-1.43,1.16-2.87,2.3-4.32,3.41-1.46,1.1-2.98,2.14-4.47,3.18-3.01,2.07-6.04,4.03-9.08,5.9-3.11,1.79-6.25,3.48-9.39,5.07-1.57,.79-3.14,1.57-4.72,2.31-1.6,.7-3.2,1.38-4.81,2.03-3.21,1.3-6.41,2.52-9.6,3.62-3.23,1-6.45,1.92-9.66,2.75-1.6,.41-3.2,.8-4.79,1.17-1.85,.44-3.69,.84-5.53,1.22-3.7,.73-7.29,1.43-11.02,1.79-3.7,.4-7.36,.72-10.99,.83-3.66,.06-7.29,0-10.85-.16-14.33-.88-27.85-4.32-39.79-9.67-11.95-5.36-22.39-12.55-30.88-21.03-8.5-8.46-15.08-18.09-19.55-28.04-.55-1.25-1.08-2.5-1.59-3.74-.51-1.24-.99-2.48-1.38-3.76-.82-2.53-1.57-5.04-2.2-7.52-.54-2.52-1-5.02-1.38-7.48l-.27-1.89-.26-2.06c-.16-1.37-.29-2.72-.4-4.06-.75-10.82,1.04-21.21,4.81-29.94,3.74-8.75,9.29-15.88,15.6-21,6.31-5.13,13.39-8.26,20.15-9.4,.82-.17,1.67-.27,2.52-.34,.84-.08,1.66-.13,2.47-.18,1.61-.09,3.26,.06,4.77,.16,.74,.04,1.57,.19,2.32,.31,.77,.14,1.49,.26,2.22,.46,1.47,.44,2.81,.83,4.11,1.48Z"/><path class="cls-2" d="M263.3,283.79c.37,4.77,1.9,9,4.15,12.31,2.24,3.32,5.2,5.7,8.33,6.95,3.14,1.26,6.36,1.4,9.31,.6,.75-.15,1.62-.23,2.36-.4,.38-.08,.74-.17,1.1-.26,.37-.11,.76-.25,1.13-.39,.73-.28,1.4-.58,2.04-.92,.69-.39,1.33-.81,1.91-1.24,.55-.4,1.17-.95,1.69-1.47,.26-.26,.51-.53,.74-.8l.18-.21c.04-.05,.05-.08,.05-.08,.02-.03,.08-.11,.08-.13,.08-.16,.08-.19,.08-.18-.02,.03-.05,.31-.05,.39v.09s0-.01,0,0c0,0,0,.05,0,.08-.04-.17,0,0-.08-.29l-.04-.1-.02-.03-.05-.14c-.07-.18-.15-.33-.21-.45l-.02-.04v-.02c4.14,7.97-5.68-10.87-4.66-8.92h0s0,.02,0,.02l.04,.09,.1,.2c.08,.14,.18,.3,.3,.47,.02,.03,.05,.09,.1,.16l.1,.12,.06,.07s0,0,0,0c0,0,0,0,.03,.04l.06,.06-.05-.05c-.08-.1-.6-.37-.54-.32-.08,0,.49,.09,.62,.05h.07s-.08,0-.08,0c-.04,0-.06,.02-.05,.02h0s-.09,.02-.09,.02l-.15,.05c-.09,.03-.15,.06-.18,.08-.19,.07-.37,.14-.51,.21l-11.36,5.93c.15-.07,.34-.18,.49-.28,.11-.06,.23-.13,.36-.23l170.77-111.63c1.04,2.99,2.03,5.98,2.96,8.96,.89,2.99,1.7,5.98,2.47,8.96l1.26,4.92c.44,1.74,.85,3.47,1.24,5.2,.79,3.47,1.5,6.92,2.12,10.37,.55,3.51,1.02,7.01,1.4,10.49,.19,1.74,.37,3.48,.52,5.21l.21,2.59,.12,2.61c.14,3.48,.2,6.94,.19,10.37,0,1.72-.03,3.42-.08,5.12-.09,1.71-.2,3.41-.33,5.1-1.9,27.13-10.31,52.14-22.99,72.79-12.77,20.67-29.83,37.15-48.64,48.33-1.17,.7-2.34,1.39-3.51,2.06-1.2,.64-2.41,1.26-3.61,1.87-2.41,1.22-4.82,2.37-7.23,3.46-1.19,.56-2.41,1.06-3.65,1.52-1.23,.47-2.45,.93-3.68,1.38-2.45,.89-4.89,1.72-7.32,2.48-2.46,.68-4.92,1.3-7.35,1.86-1.22,.28-2.43,.55-3.64,.8l-3.83,.76c-2.76,.52-5.51,.97-8.23,1.34l-2.03,.26-2.07,.17c-1.37,.11-2.74,.2-4.1,.27-5.41,.36-10.83,.06-16.04-.37-2.62-.29-5.21-.7-7.74-1.14-1.27-.23-2.52-.44-3.77-.73-1.25-.3-2.48-.61-3.7-.94-2.44-.68-4.84-1.3-7.16-2.17-2.33-.85-4.61-1.74-6.82-2.68-2.21-.95-4.35-2.08-6.44-3.17-1.04-.55-2.07-1.12-3.08-1.69-1-.61-1.99-1.24-2.96-1.87-7.8-4.93-14.43-11.02-19.8-17.56-5.41-6.49-9.43-13.74-12.19-20.91-.67-1.82-1.28-3.62-1.83-5.4-.5-1.82-.91-3.64-1.28-5.42-.18-.89-.37-1.77-.51-2.66l-.32-2.67c-.19-1.79-.33-3.44-.42-5.26-.49-7.43,.62-14.58,2.9-20.72,2.27-6.16,5.71-11.34,9.73-15.27,4.01-3.94,8.59-6.64,13.12-8.08Z"/><path class="cls-1" d="M258.03,304.44c2.68,2.82,5.84,4.84,8.91,6.13,1.65,.61,3.09,1.05,4.78,1.41,.81,.18,1.59,.32,2.36,.45,.8,.1,1.62,.14,2.38,.17,6.19,.22,11.63-1.96,15.27-5.62,.46-.46,.88-.93,1.26-1.39,.38-.46,.78-1.04,1.1-1.55,.34-.54,.61-1,.89-1.59,.28-.58,.51-1.15,.71-1.71,.1-.28,.19-.55,.27-.84,.09-.31,.16-.62,.23-.92,.07-.3,.12-.6,.17-.9l.06-.37v.04s-.01,.06-.01,.06c0,.01,0,.15,0,.12-.04,.24,.15,.36-.38-.78l-.04-.07v-.02c-9.3-17.83-2.58-4.94-4.66-8.92h0s0,.01,0,.01l.02,.03,.07,.15c.06,.11,.13,.23,.21,.36l.14,.21,.03,.06s.06,.1,.11,.16c.18,.22,.08,.1,.13,.17l.04,.04s.04,.04,.01,.01l-.06-.05c-.09-.09-.46-.3-.53-.3-.1-.02,.17,.07,.44,.06,.26,.02,.4-.1-.34,.18l153.66-62.33c3.22,20.84,2.21,41.64-2.46,60.46-4.64,18.85-12.82,35.74-23.3,49.81-10.48,14.09-23.28,25.4-37.05,33.44-1.73,1-3.45,1.97-5.18,2.9-1.71,.94-3.53,1.72-5.29,2.53-3.56,1.58-7.04,3.09-10.66,4.2-1.79,.59-3.58,1.14-5.35,1.65l-2.65,.74-2.68,.59c-1.78,.37-3.56,.72-5.31,1.03-1.8,.31-3.38,.57-5.45,.86-1.96,.27-3.91,.5-5.83,.69-.97,.09-1.91,.19-2.88,.24l-2.9,.09c-1.93,.04-3.83,.03-5.7,0-1.87-.04-3.77-.25-5.62-.42-1.85-.2-3.67-.39-5.47-.7-1.8-.33-3.58-.7-5.32-1.1l-2.59-.62c-.85-.23-1.7-.5-2.54-.76-1.68-.53-3.33-1.09-4.94-1.68-12.9-4.86-23.31-12.86-30.59-21.93-7.33-9.05-11.41-19.43-12.44-29.04-.13-1.21-.25-2.37-.3-3.54-.01-1.19,0-2.36,.04-3.5,.03-2.22,.33-4.62,.68-6.77,.89-4.42,2.42-8.33,4.57-11.61Z"/><path class="cls-2" d="M266.86,323.86c5.97,1.08,11.65,.52,16.39-1.23,4.75-1.74,8.58-4.68,11.06-8.19,2.49-3.5,3.6-7.54,3.3-11.36-.04-.48-.08-.9-.16-1.38-.08-.49-.18-.97-.3-1.43s-.25-.9-.4-1.32c-.15-.44-.34-.93-.53-1.36l-.15-.34-.07-.12-.03-.05h0s-.61-1.18-.61-1.18l-.05-.18-.23-.72c-.32-.94-.68-1.81-1.07-2.62-.43-.85-.97-1.71-1.5-2.45l-.41-.55c-.22-.28-.06-.08-.08-.1,0-.01-.01-.01,0,0l.04,.04s.08,.08,.03,.03c-.05-.05-.07-.06-.05-.05-.17-.14-.31-.21-.46-.28-.18-.07-.06,0,.11,.02l.12,.02h.13s0,0,.02,0c0,0,.16,0,.16,0-.02,0,0,0,.06,0l137.51-22.7c-.42,3.5-.93,6.95-1.52,10.34-.61,3.38-1.47,6.71-2.32,9.98-.44,1.63-.88,3.24-1.37,4.84-.53,1.59-1.08,3.16-1.64,4.72-.56,1.56-1.14,3.09-1.74,4.61-.6,1.52-1.19,3.02-1.9,4.49-1.37,2.94-2.8,5.81-4.27,8.59-1.49,2.78-3.2,5.44-4.86,8.04-.85,1.3-1.68,2.58-2.57,3.83-.92,1.24-1.84,2.46-2.78,3.66-.93,1.2-1.88,2.38-2.83,3.53-.95,1.16-1.9,2.29-2.94,3.37-2.04,2.18-4.1,4.28-6.18,6.29-2.11,2-4.36,3.85-6.56,5.64-1.11,.89-2.2,1.77-3.34,2.61-1.16,.82-2.32,1.62-3.48,2.4-1.16,.78-2.32,1.54-3.48,2.27-1.16,.74-2.31,1.45-3.53,2.1-2.41,1.31-4.81,2.54-7.2,3.69-2.4,1.14-4.91,2.06-7.33,2.98-1.22,.45-2.43,.88-3.64,1.29-1.23,.37-2.47,.71-3.7,1.04-2.46,.64-4.87,1.26-7.28,1.7-4.93,.78-9.4,1.33-14.73,1.57-1.28,.05-2.52,.11-3.78,.1-1.27-.04-2.53-.09-3.77-.17s-2.46-.17-3.67-.28c-1.21-.13-2.43-.34-3.62-.53-9.52-1.56-18.05-5.03-24.98-9.7-6.95-4.65-12.34-10.49-15.98-16.7-3.65-6.2-5.55-12.73-5.84-18.79Z"/><path class="cls-1" d="M284.86,335.48c8.1-3.25,13.91-8.81,16.57-15.03,1.38-2.97,1.92-6.3,1.91-9.19,.1-1.66,.11-3.24,.03-4.69-.19-1.6-.46-3.05-.82-4.41-1.63-5.65-5.38-10.17-10.14-12.7l-.46-.24-.36-.17h-.02s-.04-.02-.06-.03c-.02,0-.02,0,0,0,.03,.01-.03,0-.01,0l.11,.03,.2,.03,113.67,6.6c-6.29,15.38-15.69,28.18-26.58,37.72-10.88,9.57-23.28,15.88-35.41,18.84-3.07,.69-6.1,1.21-9.02,1.62-3.01,.26-5.92,.41-8.76,.45-6.13,0-11.88-.63-17.18-2.3-10.57-3.06-18.76-9.46-23.66-16.51Z"/><path class="cls-2" d="M306.3,335.91c.8-.97,1.47-2.14,2.12-3.19,.32-.54,.62-1.07,.92-1.59,.29-.52,.54-1.12,.78-1.67,.49-1.13,.93-2.17,1.3-3.28,.37-1.16,.7-2.29,.98-3.4l.4-1.63c.12-.55,.19-1.14,.27-1.69,.15-1.12,.27-2.21,.35-3.25,.09-1.04,.02-2.19-.01-3.21l-.09-1.53c-.03-.49-.08-.99-.18-1.52-.37-2.07-.73-3.87-1.48-5.74-.35-.91-.68-1.74-1.09-2.57-.45-.86-.92-1.67-1.39-2.42-.24-.38-.47-.74-.73-1.1-.28-.38-.57-.74-.85-1.09-.57-.7-1.15-1.34-1.73-1.93-.66-.63-1.33-1.2-1.99-1.72-.33-.26-.66-.51-.99-.74-.34-.24-.73-.48-1.1-.69l74.61,21.29c-.64,.76-1.24,1.52-1.91,2.25l-2.04,2.13c-1.36,1.39-2.73,2.73-4.1,4.01-1.46,1.24-2.92,2.44-4.37,3.57l-2.18,1.67c-.75,.53-1.53,1.03-2.29,1.52-1.53,.99-3.05,1.92-4.55,2.8-1.54,.86-3.15,1.61-4.7,2.35-3.04,1.51-6.33,2.57-9.41,3.54-.76,.25-1.55,.45-2.36,.62l-2.36,.51c-1.58,.3-3.06,.64-4.62,.79-1.56,.16-3.09,.27-4.58,.36-.75,.03-1.47,.09-2.22,.08l-2.23-.08c-1.47-.07-2.9-.17-4.28-.3-1.42-.16-2.87-.43-4.22-.69-.69-.14-1.34-.25-2.01-.45-.67-.19-1.33-.4-1.97-.6-1.29-.44-2.5-.79-3.71-1.39Z"/><path class="cls-1" d="M346.42,318.81c-7.09,3.96-14.49,6.09-21.4,6.57,1.1-6.85,.52-13.34-1.33-18.91l22.72,12.34Z"/></g></g></g><text class="cls-4" transform="translate(1.5 346.77)"><tspan x="0" y="0">Big Fish</tspan></text></svg>